Coordinates
version=1
nRows=5
nColumns=42
inDegrees=yes

Units are S.I. units (second, meters, Newtons, ...)
If the header above contains a line with 'inDegrees', this indicates whether rotational values are in degrees (yes) or radians (no).

endheader
time	pelvis_tilt	pelvis_list	pelvis_rotation	pelvis_tx	pelvis_ty	pelvis_tz	hip_flexion_r	hip_adduction_r	hip_rotation_r	knee_angle_r	knee_adduction_r	knee_angle_r_beta	ankle_angle_r	subtalar_angle_r	mtp_angle_r	hip_flexion_l	hip_adduction_l	hip_rotation_l	knee_angle_l	knee_adduction_l	knee_angle_l_beta	ankle_angle_l	subtalar_angle_l	mtp_angle_l	lumbar_extension	lumbar_bending	lumbar_rotation	arm_flex_r	arm_add_r	arm_rot_r	elbow_flex_r	pro_sup_r	wrist_flex_r	wrist_dev_r	arm_flex_l	arm_add_l	arm_rot_l	elbow_flex_l	pro_sup_l	wrist_flex_l	wrist_dev_l
      0.03000000	     21.81526043	      0.53115284	      1.01115143	     -1.09050777	      0.88319244	     -0.11651493	    -29.41800899	     -0.36154112	    -28.01350736	     27.60595070	     -4.12607078	      0.48181473	     31.65635896	     21.02455743	     -8.69878521	     11.02128156	      0.36527551	    -11.19697054	     28.08929638	     -0.88605139	      0.49025071	      9.45993613	     -4.37362750	     -8.69878521	    -41.84445697	     -0.84790964	      0.16011171	     23.33434144	     -8.28805748	     -4.79367348	     41.29293875	     90.00000001	      0.00000000	      0.00000000	      6.73087689	     -3.30686162	    -35.51345992	     34.35269461	     90.00000001	      0.00000000	      0.00000000
      0.04000000	     21.41351079	      0.49123683	      1.00178265	     -1.07975160	      0.88224140	     -0.11808068	    -29.54096366	     -0.60019724	    -28.20326662	     28.03858571	     -4.21023174	      0.48936564	     31.27059125	     21.11538353	     -8.68900430	     11.28576695	      0.51914173	    -11.21440876	     29.02186600	     -1.05629280	      0.50652712	      9.12900022	     -4.30728216	     -8.68900430	    -41.14562061	     -0.84152705	      0.33543121	     22.91027761	     -8.37229761	     -4.85793232	     41.06903253	     90.00000001	      0.00000000	      0.00000000	      6.47550184	     -3.18307643	    -35.55324959	     34.23121810	     90.00000001	      0.00000000	      0.00000000
      0.05000000	     21.03616572	      0.48762548	      1.00093325	     -1.06899057	      0.88147038	     -0.11961568	    -29.60986349	     -0.83937275	    -28.41269972	     28.57623078	     -4.41991121	      0.49874931	     30.63281108	     21.31951349	     -8.67617074	     11.56939267	      0.65530962	    -11.54708637	     30.01317804	     -1.29669483	      0.52382878	      8.79299563	     -4.17814821	     -8.67617074	    -40.48049169	     -0.88624474	      0.52082124	     22.50396427	     -8.41149827	     -4.98336573	     40.81378539	     90.00000001	      0.00000000	      0.00000000	      6.20511909	     -3.06729580	    -35.62249887	     34.05340067	     90.00000001	      0.00000000	      0.00000000
      0.06000000	     20.69112998	      0.53213418	      0.96856892	     -1.05822017	      0.88089603	     -0.12117959	    -29.66661925	     -1.17055740	    -28.52328480	     29.20250563	     -4.58933985	      0.50967987	     29.95841070	     21.49194989	     -8.66502293	     11.78445163	      0.86470420	    -11.73659364	     30.95245848	     -1.51862359	      0.54022231	      8.62473914	     -4.02004974	     -8.66502293	    -39.85178830	     -0.99656362	      0.67170278	     22.03829425	     -8.44753255	     -5.14539611	     40.54941878	     90.00000001	      0.00000000	      0.00000000	      5.97415496	     -2.96039478	    -35.69908015	     33.89000762	     90.00000001	      0.00000000	      0.00000000
      0.07000000	     20.38693731	      0.59542492	      0.89298903	     -1.04742848	      0.88066492	     -0.12272473	    -29.69754321	     -1.35908367	    -28.30561488	     29.72658115	     -5.03045945	      0.51882672	     29.68762889	     21.54738255	     -8.66276581	     11.75324141	      1.15956126	    -11.55593250	     31.50712814	     -1.62102986	      0.54990312	      8.58167854	     -3.96324088	     -8.66276581	    -39.27144243	     -1.11651871	      0.77384712	     21.49070354	     -8.42326948	     -5.20096841	     40.34328125	     90.00000001	      0.00000000	      0.00000000	      5.60044310	     -2.85793082	    -35.75473402	     33.75477317	     90.00000001	      0.00000000	      0.00000000
